<svg xmlns="http://www.w3.org/2000/svg" viewBox="0 0 735.10645 226.54492"><g id="Capa_2" data-name="Capa 2"><g id="Capa_1-2" data-name="Capa 1"><path d="M0,223.21484v-4.84472H4.89551a9.85384,9.85384,0,0,0,4.106-.75684,11.42115,11.42115,0,0,0,3.41163-2.57812q4.19312-4.24366,4.1958-17.584v-166.46q0-12.72949-4.32569-17.58887a9.97745,9.97745,0,0,0-1.8164-1.51367A8.15109,8.15109,0,0,0,8.564,10.97559c-.63525-.19825-1.41406-.45411-2.33593-.75684A25.72473,25.72473,0,0,0,0,9.76465V4.91992H62.45605q30.44825,0,49.481,29.97461,19.02906,29.97363,19.03076,78.11328,0,49.65821-20.15576,79.93067-20.15625,30.27831-53.373,30.27636ZM35.4668,18.54492V208.07617q13.52709,2.72607,21.50146,2.72559,23.93262,0,38.75684-26.49219,14.825-26.49024,14.82763-69.18262,0-45.10986-15.25976-71.75488Q80.03,16.73242,54.022,16.72852A132.48273,132.48273,0,0,0,35.4668,18.54492Z"/><path d="M133.562,223.21484v-4.84472q7.95557,0,10.72656-4.22852,2.76491-4.229,2.76807-16.61426v-88.498q0-9.665-.69189-12.38477-1.38721-6.64159-6.40137-6.64648a10.63168,10.63168,0,0,0-5.53662,1.8164l-.86475-4.542,30.10352-17.56055V197.52246q0,12.09083,2.85449,16.46777,2.855,4.38429,10.64014,4.37989v4.84472Zm9.16944-203.459q0-8.1753,3.11425-13.624,3.11354-5.45068,7.958-5.4502,4.49708,0,7.78565,5.4502,3.28418,5.44921,3.2871,13.624,0,7.87647-3.20068,13.16992-3.20361,5.30127-7.87207,5.29883-4.67065,0-7.87158-5.29883Q142.72852,27.6333,142.73145,19.75586Z"/><path d="M180.09863,223.21484v-4.84472q8.12988,0,10.89942-4.22852,2.76563-4.229,2.76806-16.61426V105.09766a48.78028,48.78028,0,0,0-.52685-8.45313q-1.40332-6.64159-6.66114-6.64648a11.55474,11.55474,0,0,0-5.60888,1.8164l-.87061-4.542,30.10645-17.63574.34326,31.86621q4.03052-7.2671,7.01221-11.959a64.96425,64.96425,0,0,1,5.60937-7.72071q8.23976-10.5952,17.88184-10.59668,9.64306,0,16.30371,9.99121a25.81428,25.81428,0,0,1,3.417,7.56836,103.80087,103.80087,0,0,1,2.54346,12.7168,199.90713,199.90713,0,0,1,11.85937-19.07422q8.59278-11.19726,18.39063-11.20215,10.311,0,16.84375,10.876A38.216,38.216,0,0,1,314.708,94.94629a139.64436,139.64436,0,0,1,1.20312,20.999v81.57715q0,12.09083,2.85449,16.46777,2.85426,4.38429,11.15918,4.37989v4.84472H286.15332v-4.84472q7.61133,0,10.38037-4.53125,2.76563-4.52784,2.76856-16.31153V121.10645q0-12.38233-.3462-16.16016a28.08983,28.08983,0,0,0-2.07617-8.00391q-3.46289-8.75684-11.07275-8.76172-5.36426,0-10.813,5.44532-5.45,5.44335-11.67822,17.56543V197.6543q0,11.70849,2.76855,16.21289,2.76489,4.50585,10.20752,4.50293v4.84472H233.38525v-4.84472q7.437,0,10.38086-4.541,2.93994-4.541,2.94092-16.34961V117.85254q0-29.669-13.60254-29.67188a12.23044,12.23044,0,0,0-7.9209,2.792,33.303,33.303,0,0,0-6.19824,6.66015q-2.75757,3.87451-8.437,13.5586v86.34472q0,11.78028,2.83838,16.30762,2.83813,4.52637,10.8291,4.52637v4.84472Z"/><path d="M376.291,133.293V107.55859q0-10.29052-.34864-13.17089a22.324,22.324,0,0,0-2.26269-6.8125q-4.00269-7.86915-12.00537-7.87208a14.16964,14.16964,0,0,0-10.87549,5.14747A17.56153,17.56153,0,0,0,346.187,96.96094l.62207,5.14746,1.4541,5.14648v3.63379a19.96856,19.96856,0,0,1-2.59472,10.59668q-2.5957,4.24365-6.40137,4.23828-3.98219,0-6.40137-4.23828-2.42505-4.23633-2.42236-11.20215,0-16.04443,10.03467-27.55175,10.032-11.50342,24.394-11.50489,15.052,0,21.88574,9.10156,6.83277,9.104,6.834,29.43458v83.13769q0,10.92774,1.12451,14.41406a4.76752,4.76752,0,0,0,8.39111,1.6045,30.21968,30.21968,0,0,0,3.6333-6.59473l1.73,3.37305-4.19824,9.5039a26.8944,26.8944,0,0,1-6.5581,8.27832,12.20584,12.20584,0,0,1-7.78272,3.06543q-7.34766,0-11.01855-10.41211a31.853,31.853,0,0,1-1.39747-5.96972q-.52734-3.52-1.2246-9.958a136.16958,136.16958,0,0,1-9.79395,15.74316q-9.10767,10.60254-18.55811,10.59668-9.79687,0-16.06835-9.83984-6.27247-9.835-6.27149-24.97754,0-29.06542,20.13672-42.3877a101.94491,101.94491,0,0,1,8.68018-5.45019q6.24828-3.63282,7.63964-4.23828Zm0,58.34863V141.165l-11.938,6.99219q-10.55493,7.30224-13.84033,11.55664-7.61572,8.5166-7.6128,24.32617,0,10.94824,4.3252,18.85644,4.32274,7.90431,10.55371,7.90528a10.1025,10.1025,0,0,0,4.06592-1.06446,21.23624,21.23624,0,0,0,4.58447-2.89062Q370.23266,203.19922,376.291,191.6416Z"/><path d="M404.145,223.21484v-4.84472q8.12988,0,10.98584-4.22852,2.855-4.229,2.855-16.61426V109.93262q0-9.9624-.71094-13.28809-1.41943-6.64159-6.56885-6.64648a11.10026,11.10026,0,0,0-5.67968,1.8164l-.88135-4.542,30.44971-17.63574v32.16894q2.57079-4.541,5.91211-10.14257a76.71171,76.71171,0,0,1,6.5957-9.53711q8.56421-10.8999,18.16064-10.89942,10.27955,0,17.1333,12.99024a43.05867,43.05867,0,0,1,4.28223,12.541q1.02978,6.19483,1.02979,21v79.76465q0,12.09083,2.78173,16.46777,2.78175,4.38429,10.71289,4.37989v4.84472H457.95068v-4.84472q7.61133,0,10.29444-4.37989,2.67993-4.37841,2.68164-16.46289V107.21289a26.82353,26.82353,0,0,0-2.26026-10.27051,12.87684,12.87684,0,0,0-4.60644-6.34375,11.47184,11.47184,0,0,0-6.69287-2.11523q-7.303,0-14.08155,9.38574a42.663,42.663,0,0,0-3.563,4.542q-1.65455,2.42726-5.12793,8.17481v86.95019q0,11.78028,2.76806,16.30762,2.76563,4.52637,10.55371,4.52637v4.84472Z"/><path d="M571.09766,167.20312l2.249,1.21094a226.72451,226.72451,0,0,1-5.10352,23.76758,71.64747,71.64747,0,0,1-6.4873,15.5918q-10.21143,17.25879-24.56738,17.25781-16.95851,0-27.855-20.626-10.89918-20.62792-10.89942-53.09277,0-33.97558,12.28369-57.02832Q523.00049,71.229,540.99414,71.22656q12.1084,0,20.76172,10.59668,8.64843,10.60107,8.65039,25.43164a20.71356,20.71356,0,0,1-2.88184,11.05176q-2.8828,4.69776-6.72363,4.69238-4.01367,0-6.63379-4.23828a19.82351,19.82351,0,0,1-2.61914-10.59668V106.044l.69238-6.9629V96.6582a19.792,19.792,0,0,0-3.46093-11.80761q-3.4629-4.83985-8.47657-4.84375-10.73,0-17.56054,17.14843-6.83643,17.14453-6.834,44.15625,0,29.13721,7.61231,47.19434,7.61133,18.05859,20.06933,18.05664,9.167,0,16.6084-11.20215Q566.25245,186.27686,571.09766,167.20312Z"/><path d="M567.63477,223.21484v-4.84472q8.13133,0,10.90039-4.2334,2.76563-4.229,2.76757-16.63379V39.92285a90.95257,90.95257,0,0,0-.876-14.8164q-.876-4.83985-6.31153-4.83985a13.31643,13.31643,0,0,0-5.60937,1.50977l-.87109-4.53711L597.74121,0l.34375,101.50293q3.99024-7.56446,6.5957-11.80762a73.41172,73.41172,0,0,1,5.55567-7.87207q8.15332-10.5952,17.877-10.59668,10.93066,0,18.05176,13.293a44.48043,44.48043,0,0,1,4.16308,13.29785,146.3662,146.3662,0,0,1,1.2168,21.752v77.95312q0,12.38966,2.73242,16.61914,2.73341,4.229,10.93555,4.22852v4.84472H621.44141v-4.84472q7.78565,0,10.55371-4.22852,2.76415-4.229,2.76758-16.61426V119.89551q0-9.05419-.26172-13.59082a28.628,28.628,0,0,0-2.17383-9.21094,15.453,15.453,0,0,0-4.7793-6.79785,10.97584,10.97584,0,0,0-6.69043-2.11524q-5.9121,0-11.47265,5.73926-3.65333,3.93018-11.29981,16.917v86.69043q0,12.0835,2.75195,16.46289,2.75246,4.38429,10.56934,4.37989v4.84472Z"/><path d="M734.06836,136.92676H678.87793l-.17285,9.42773q0,24.63867,7.959,41.66406,7.95557,17.03028,19.72266,17.03028a15.82181,15.82181,0,0,0,12.11035-5.49219,39.01713,39.01713,0,0,0,8.65137-12.20508q2.76415-6.40869,5.36328-21.05664h2.59473q-.8672,6.769-1.73047,12.14356-.8672,5.37889-2.249,12.45117-3.80712,15.99462-12.2832,25.52246-8.47851,9.53027-19.37695,9.52734-16.95851,0-27.33594-20.89062Q661.751,184.15869,661.75,149.64258q0-34.21,10.72754-56.31446Q683.20166,71.231,700.1582,71.22656q11.06984,0,19.72364,10.54883a54.04,54.04,0,0,1,10.8125,20.94336Q734.06787,114.92383,734.06836,136.92676Zm-53.26758-29.25488-2.0957,15.62988,36.85156.30273q-1.22462-15.0293-2.18457-20.59277a43.543,43.543,0,0,0-4.10352-11.874Q704.37891,80.919,697.56836,80.915q-5.59131,0-10.21777,7.36523Q682.72021,95.647,680.80078,107.67188Z"/></g></g></svg>