<?xml version="1.0" encoding="utf-8"?>
<!-- Generator: Adobe Illustrator 25.2.1, SVG Export Plug-In . SVG Version: 6.00 Build 0)  -->
<svg version="1.1" id="Capa_1" xmlns="http://www.w3.org/2000/svg" xmlns:xlink="http://www.w3.org/1999/xlink" x="0px" y="0px"
	 viewBox="0 0 512.6 370.6" style="enable-background:new 0 0 512.6 370.6;" xml:space="preserve">
<style type="text/css">
	.st0{opacity:0.13;fill:#213FAD;stroke:#000000;stroke-width:11.8558;stroke-miterlimit:10.0285;enable-background:new    ;}
	.st1{fill:#213FAD;stroke:#F9F7BB;stroke-width:11.8558;stroke-miterlimit:10.0285;}
	.st2{fill:#F9F7BB;}
</style>
<g id="Capa_2_1_">
	<g id="Capa_1-2">
		
			<ellipse transform="matrix(0.1595 -0.9872 0.9872 0.1595 30.9267 416.5153)" class="st0" cx="260.1" cy="190.1" rx="161.5" ry="234.2"/>
		
			<ellipse transform="matrix(0.1595 -0.9872 0.9872 0.1595 36.1166 404.6577)" class="st1" cx="255.7" cy="181.1" rx="161.5" ry="234.2"/>
		<path class="st2" d="M126.7,140.1l11.2-71.2l19.8,3.2c5.1,0.8,8.6,2,10.6,3.6c2,1.6,3.4,4.1,4.3,7.5c0.9,3.8,1,7.8,0.3,11.7
			c-0.9,5.6-2.6,9.9-5.3,12.9c-2.5,3-6.2,4.8-10.1,5c1.7,2,3.1,4.3,4.1,6.7c1.5,4.1,2.7,8.2,3.6,12.4l3.4,14.7l-11.2-1.8l-4.4-16.6
			c-0.9-3.8-2-7.6-3.3-11.3c-0.5-1.3-1.3-2.5-2.3-3.4c-1.4-0.9-3-1.4-4.6-1.5l-1.9-0.3l-4.7,29.7L126.7,140.1z M142.5,100.5l7,1.1
			c4.3,0.7,7,0.9,8.3,0.6c1.4-0.4,2.5-1.2,3.3-2.4c1.1-1.7,1.8-3.5,2-5.5c0.4-1.9,0.3-3.8-0.2-5.6c-0.4-1.4-1.3-2.5-2.5-3.3
			c-0.8-0.5-3.3-1.1-7.6-1.7l-7.4-1.2L142.5,100.5z"/>
		<path class="st2" d="M172.9,147.3l11.2-71.1l34.7,5.5l-1.9,12l-25.2-4l-2.5,15.8l23.4,3.7l-1.9,12l-23.4-3.7l-3,19.3l26.1,4.1
			l-1.9,12L172.9,147.3z"/>
		<path class="st2" d="M241.4,131.4l1.9-12l20.3,3.2l-4.5,28.3c-2.8,2.9-6.2,5-9.9,6.4c-3.7,1.5-7.8,2-11.8,1.5
			c-4.4-0.6-8.5-2.8-11.5-6.2c-3.1-3.4-5.2-8.1-6.4-14.1c-1.2-6.8-1.2-13.7,0-20.4c1.2-7.8,3.3-14.4,6.3-19.6
			c2.9-5.2,6.3-9,10.1-11.2c3.8-2.2,8.3-3,12.6-2.2c5.6,0.9,9.7,3.4,12.5,7.4c2.8,4.1,4.1,9.6,4,16.7l-9.7,1.2c-0.1-3.7-1-6.7-2.5-9
			c-1.4-2.1-3.7-3.6-6.2-4c-4-0.6-7.6,0.8-10.7,4.3c-3.1,3.5-5.3,9.3-6.6,17.2c-1.3,8.6-1,15.3,0.9,20.2c1.7,4.2,4.5,6.6,8.4,7.2
			c2,0.3,4.1,0,6-0.7c2.2-0.8,4.2-2,6-3.6l1.4-9L241.4,131.4z"/>
		<path class="st2" d="M307.6,168.5l-10.2-1.6l-1.6-16.8l-18.7-2.9l-6.4,15.5l-10-1.6l29.4-68.3l10,1.6L307.6,168.5z M294.7,137.6
			l-2.3-27.4L282,135.6L294.7,137.6z"/>
		<path class="st2" d="M312.1,169.2l11.1-70.6l9.4,1.5l-9.2,58.5l23.4,3.7l-1.9,12L312.1,169.2z"/>
		<path class="st2" d="M393,181.9l-10.2-1.6l-1.6-16.8l-18.7-2.9l-6.4,15.5l-10-1.6l29.4-68.3l10,1.6L393,181.9z M380.1,151
			l-2.3-27.4l-10.5,25.4L380.1,151z"/>
		<path class="st2" d="M86.6,154.4l17.2,2.7c4.4,0.7,7.6,1.8,9.5,3.4c2.3,1.9,4,4.3,5.2,7.1c1.5,3.8,2.4,7.8,2.6,11.9
			c0.3,5.8-0.1,11.6-1.1,17.4c-0.8,5.4-2.2,10.7-4.2,15.8c-1.4,3.7-3.4,7.1-5.9,10.1c-1.9,2.2-4.4,4-7.1,5c-3.1,1-6.4,1.2-9.6,0.5
			l-17.7-2.8L86.6,154.4z M94.1,168L86.6,215l7.1,1.1c3,0.5,5.3,0.5,6.7,0c1.5-0.5,2.8-1.5,3.9-2.7c1.4-2,2.5-4.1,3.2-6.5
			c1.3-4,2.2-8,2.8-12.1c0.7-4.2,1.1-8.4,1.1-12.6c0-2.6-0.5-5.2-1.6-7.6c-0.8-1.8-2.2-3.3-3.9-4.1c-1.2-0.6-3.8-1.2-7.6-1.9
			L94.1,168z"/>
		<path class="st2" d="M121.4,232.8l11.2-71.2l9.4,1.5l-11.2,71.1L121.4,232.8z"/>
		<path class="st2" d="M138.8,235.6l11.2-71.2l14.1,2.2l0.8,49.9l16.1-47.3l14.2,2.2L184,242.7l-8.8-1.4l8.8-56l-18.1,54.6l-9.1-1.4
			l-0.4-57.5l-8.8,56.1L138.8,235.6z"/>
		<path class="st2" d="M234.6,250.6l-10.2-1.6l-1.6-16.8l-18.7-2.9l-6.4,15.5l-10-1.5l29.4-68.3l10,1.6L234.6,250.6z M221.7,219.7
			l-2.3-27.4l-10.5,25.4L221.7,219.7z"/>
		<path class="st2" d="M238.9,251.3l11.2-71.1l9.2,1.4l11.6,50.5l7.5-47.5l8.8,1.4l-11.2,71.2l-9.5-1.5l-11.5-49.4l-7.2,46.4
			L238.9,251.3z"/>
		<path class="st2" d="M319,237.1l8.4,5.9c-2.7,7.7-6,13.2-9.9,16.3c-3.6,3.1-8.4,4.4-13.1,3.6c-6.1-1-10.5-4.7-13.4-11.1
			c-3.3-7.5-4-16.9-2.2-28.4c1.9-12.1,5.6-21.3,11-27.5c4.8-5.3,10.3-7.5,16.8-6.6c5.2,0.9,9.3,3.8,12.1,8.8c2,3.6,3.1,8.6,3.3,15
			l-9.9,1.9c0-3.9-0.7-7.1-2.2-9.4c-1.2-2.2-3.3-3.7-5.8-4.1c-3.5-0.5-6.6,0.9-9.4,4.3c-2.8,3.4-4.8,9.4-6.2,18.1
			c-1.4,9-1.3,15.5,0.2,19.6c1.5,4.1,4,6.4,7.4,7c2.5,0.4,4.8-0.5,7-2.6C315.4,245.8,317.4,242.2,319,237.1z"/>
		<path class="st2" d="M331.3,265.9l11.2-71.1l9.4,1.5l-4.4,28l18.5,2.9l4.4-28l9.4,1.5l-11.2,71.1l-9.4-1.5l4.9-31.1l-18.5-2.9
			l-4.9,31.1L331.3,265.9z"/>
		<path class="st2" d="M377.6,273.1l11.2-71.2l34.7,5.4l-1.9,12l-25.2-4l-2.5,15.9l23.4,3.7l-1.9,12l-23.4-3.7l-3,19.3l26.1,4.1
			l-1.9,12L377.6,273.1z"/>
	</g>
</g>
</svg>
