<svg xmlns="http://www.w3.org/2000/svg" viewBox="0 0 1080.48 1080.48"><defs><style>.cls-1{fill:#fff;stroke-width:0.48px;}.cls-1,.cls-2{stroke:#000;}.cls-1,.cls-2,.cls-3{stroke-miterlimit:10;}.cls-2,.cls-3{fill:#213fad;stroke-width:12.62px;}.cls-2{opacity:0.13;}.cls-3{stroke:#f9f7bb;}.cls-4{fill:#f9f7bb;}</style></defs><g id="Capa_2" data-name="Capa 2"><g id="Capa_1-2" data-name="Capa 1"><rect class="cls-1" x="0.24" y="0.24" width="1080" height="1080"/><ellipse class="cls-2" cx="542.55" cy="545.01" rx="171.91" ry="249.25" transform="matrix(0.16, -0.99, 0.99, 0.16, -80.14, 996.3)"/><ellipse class="cls-3" cx="537.93" cy="535.47" rx="171.91" ry="249.25" transform="matrix(0.16, -0.99, 0.99, 0.16, -74.62, 983.67)"/><path class="cls-4" d="M401.75,491.94,413.7,416l21.18,3.33c5.41.85,9.18,2.14,11.28,3.87s3.64,4.39,4.61,8a30.12,30.12,0,0,1,.33,12.45q-1.39,8.91-5.68,13.81a15,15,0,0,1-10.79,5.31A29.07,29.07,0,0,1,439,470a98.64,98.64,0,0,1,3.81,13.26L446.52,499l-12-1.89-4.68-17.67a119.3,119.3,0,0,0-3.57-12.06,8.7,8.7,0,0,0-2.49-3.58,11.52,11.52,0,0,0-4.93-1.65l-2.07-.32-5,31.7Zm16.93-42.25,7.46,1.17c4.56.72,7.5.92,8.82.62a6.07,6.07,0,0,0,3.5-2.56,13.7,13.7,0,0,0,2.12-5.88,12.71,12.71,0,0,0-.25-6,6.33,6.33,0,0,0-2.67-3.52q-1.32-.79-8.08-1.86l-7.87-1.24Z"/><path class="cls-4" d="M451.14,499.7l11.94-75.95,37,5.82-2,12.85-26.94-4.24L468.44,455l25,3.93-2,12.8-25-3.94-3.24,20.62L491,492.81l-2,12.85Z"/><path class="cls-4" d="M524.26,482.64l2-12.84L548,473.2l-4.76,30.26a28.13,28.13,0,0,1-10.59,6.83A24.2,24.2,0,0,1,520,511.86a20.41,20.41,0,0,1-12.3-6.58q-4.92-5.41-6.79-15a62.6,62.6,0,0,1,0-21.78q2-12.54,6.71-20.92t10.75-12a19.69,19.69,0,0,1,13.44-2.4q8.91,1.41,13.39,7.92t4.28,17.74l-10.4,1.29q-.2-6-2.69-9.61a9.69,9.69,0,0,0-6.64-4.23q-6.42-1-11.39,4.61t-7,18.41q-2.16,13.72,1,21.56,2.71,6.75,9,7.73a12.87,12.87,0,0,0,6.38-.76,19.54,19.54,0,0,0,6.4-3.84l1.51-9.61Z"/><path class="cls-4" d="M595,522.32l-10.91-1.71-1.66-17.89-19.94-3.13-6.82,16.55-10.7-1.68,31.35-72.9,10.65,1.67Zm-13.78-33-2.45-29.26-11.18,27.12Z"/><path class="cls-4" d="M599.66,523.06l11.85-75.32,10,1.57-9.83,62.48,25,3.94-2,12.85Z"/><path class="cls-4" d="M686,536.65l-10.91-1.72L673.45,517l-19.94-3.13-6.83,16.55L636,528.78l31.35-72.9L678,457.56Zm-13.79-33-2.44-29.27-11.18,27.12Z"/><path class="cls-4" d="M358.88,507.28l18.35,2.89q6.94,1.09,10.19,3.59a19.36,19.36,0,0,1,5.49,7.58,38.22,38.22,0,0,1,2.79,12.71,83.8,83.8,0,0,1-1.18,18.55,73.41,73.41,0,0,1-4.47,16.84,38.62,38.62,0,0,1-6.33,10.82,18.79,18.79,0,0,1-7.61,5.36,20.55,20.55,0,0,1-10.29.58l-18.88-3Zm8,14.43L359,572l7.54,1.19q4.85.76,7.2,0a9.26,9.26,0,0,0,4.11-2.89,22.56,22.56,0,0,0,3.44-6.91,76.64,76.64,0,0,0,3-13,74.48,74.48,0,0,0,1.15-13.44,20,20,0,0,0-1.69-8.12,9.32,9.32,0,0,0-4.21-4.43q-2-1-8.06-2Z"/><path class="cls-4" d="M396.07,591,408,515l10,1.58L406.1,592.54Z"/><path class="cls-4" d="M414.74,593.9,426.69,518l15,2.36.9,53.29,17.15-50.45,15.11,2.38-11.94,76L453.58,600,463,540.17l-19.34,58.27L434,596.92l-.45-61.39-9.41,59.84Z"/><path class="cls-4" d="M517,610l-10.9-1.72-1.66-17.88-20-3.14-6.82,16.55L467,602.11l31.34-72.9L509,530.89Zm-13.78-33-2.45-29.27-11.18,27.12Z"/><path class="cls-4" d="M521.51,610.69l12-76,9.78,1.54,12.41,53.93,8-50.72L573,541l-12,75.95-10.11-1.59-12.27-52.68-7.79,49.52Z"/><path class="cls-4" d="M607.08,595.53l9,6.25q-4.29,12.39-10.52,17.43a17.09,17.09,0,0,1-14,3.83q-9.74-1.53-14.32-11.86-5.25-11.92-2.36-30.32,3-19.43,11.79-29.3,7.6-8.58,17.89-7,8.37,1.32,12.9,9.35,3.22,5.71,3.52,16L610.48,572q0-6.32-2.32-10a8.74,8.74,0,0,0-6.18-4.35c-3.69-.58-7,1-10,4.6s-5.16,10.07-6.61,19.29q-2.25,14.36.19,21t7.88,7.45c2.65.41,5.14-.51,7.48-2.78S605.34,601,607.08,595.53Z"/><path class="cls-4" d="M620.2,626.21l11.94-76,10,1.58-4.7,29.89,19.77,3.11,4.7-29.89,10,1.58-12,76-10-1.58,5.23-33.21-19.77-3.11-5.22,33.21Z"/><path class="cls-4" d="M669.58,634l11.94-76,37,5.81-2,12.85-27-4.23-2.64,16.83,25,3.94-2,12.8-25-3.94-3.24,20.62,27.85,4.38-2,12.85Z"/></g></g></svg>