<svg xmlns="http://www.w3.org/2000/svg" viewBox="0 0 801.31 483.48"><defs><style>.cls-1{fill:#e10a17;}.cls-2{fill:#c6c6c5;}.cls-3{fill:#fff;}</style></defs><g id="Capa_2" data-name="Capa 2"><g id="Capa_1-2" data-name="Capa 1"><path class="cls-1" d="M29.78,111.94,702.22.89s7.34,40.27,12.2,52.53C728,87.73,783.87,97.68,796.8,176c15.35,93-17.07,101.66-30,133.26-8.95,21.85-4.28,63.22-4.28,63.22L99.56,481.94s-11-35.35-16.34-46.44C66.78,401.39,19.09,406,2.77,307.16c-11.62-70.34,33-103,34.9-138.71C38.44,154.21,29.78,111.94,29.78,111.94Z"/><path class="cls-2" d="M29.66,111.86,197.3,83.58,365.37,55.43l84.12-14,84.2-13.87L617.9,13.77,702.09.12l.76-.12.14.75q2.28,12.62,4.94,25.16c.9,4.18,1.81,8.35,2.82,12.5s2,8.29,3.37,12.33a45.91,45.91,0,0,0,5.59,11.32,72.81,72.81,0,0,0,8.1,9.8c5.92,6.12,12.51,11.6,18.91,17.28q4.81,4.24,9.48,8.67c3.07,3,6.1,6,9,9.25a129.78,129.78,0,0,1,15.25,20.7c8.77,14.81,14,31.46,16.86,48.34s4.64,34,3.87,51.19c-.13,2.15-.2,4.29-.44,6.43l-.3,3.2-.43,3.2c-.25,2.13-.71,4.23-1.06,6.35s-.88,4.21-1.48,6.28a91.89,91.89,0,0,1-10,23.68c-4.35,7.42-9.59,14.23-14.06,21.48a78.41,78.41,0,0,0-5.85,11.29c-.39,1-.71,2-1.07,3l-.52,1.5-.41,1.53-.8,3.08-.6,3.12A142.18,142.18,0,0,0,762,346.83a241.53,241.53,0,0,0,1.26,25.53l.08.75-.74.12L597,401l-165.7,27.6L265.53,456,99.78,483.29l-1.18.19-.35-1.14q-3.78-12.15-7.86-24.23c-1.37-4-2.77-8-4.24-12a100.35,100.35,0,0,0-4.88-11.59,50,50,0,0,0-7.14-10.16A90.08,90.08,0,0,0,65,415.72c-6.48-5.4-13.34-10.51-19.68-16.29-3.16-2.89-6.21-5.93-9.09-9.12l-2.1-2.44-1-1.23-1-1.26-2-2.54-1.87-2.62a122.37,122.37,0,0,1-12.47-22.46C8.94,342,4.92,325.28,2.07,308.49A142.92,142.92,0,0,1,0,282.94a126,126,0,0,1,3-25.46,144.29,144.29,0,0,1,7.8-24.39c3.27-7.89,7.08-15.52,11-23.07s7.89-15.07,11-23A70.79,70.79,0,0,0,36.42,175a46.2,46.2,0,0,0,.78-12.59c-.54-8.46-1.77-16.89-3.08-25.28q-1-6.3-2.13-12.57Zm.24.16a10.23,10.23,0,0,1,.34,1.46l.32,1.56.62,3.13,1.2,6.26q1.18,6.27,2.24,12.57c1.4,8.39,2.7,16.8,3.32,25.32l.15,3.2c0,1.07,0,2.14-.05,3.22l-.28,3.2-.5,3.18a72,72,0,0,1-3.6,12.3c-3.06,8-7,15.55-10.82,23.15s-7.59,15.2-10.79,23a143.18,143.18,0,0,0-7.57,24.2A124.35,124.35,0,0,0,1.71,283,141.31,141.31,0,0,0,3.9,308.18c1.44,8.35,3.26,16.64,5.47,24.81a176.37,176.37,0,0,0,8.38,23.91A115.08,115.08,0,0,0,46.9,397.69c6.26,5.66,13.08,10.7,19.68,16.16a90.29,90.29,0,0,1,9.4,8.86,52.31,52.31,0,0,1,7.53,10.63,102.37,102.37,0,0,1,5.07,11.88c1.5,4,2.92,8,4.3,12q4.16,12.09,8,24.27l-1.53-.94,165.72-27.48,165.75-27.3,165.78-27.15,165.8-27-.66.87a240.21,240.21,0,0,1-1.14-25.72,143.66,143.66,0,0,1,2.2-25.66l.63-3.17.83-3.13.42-1.56.55-1.53c.37-1,.7-2,1.11-3a79.81,79.81,0,0,1,6-11.44c4.55-7.3,9.81-14.07,14.15-21.4a89.57,89.57,0,0,0,10-23.4c.6-2,1-4.13,1.48-6.21s.81-4.18,1.06-6.3l.43-3.16.31-3.18c.24-2.12.31-4.25.44-6.38.8-17.06-1.09-34.14-3.76-51s-8.06-33.34-16.79-48a128.94,128.94,0,0,0-15.19-20.51c-2.84-3.18-5.86-6.2-8.93-9.17s-6.26-5.8-9.47-8.62c-6.4-5.66-13-11.13-19-17.29a76.32,76.32,0,0,1-8.27-9.92,46.77,46.77,0,0,1-5.8-11.59c-1.37-4.09-2.43-8.24-3.48-12.4s-2-8.34-2.9-12.52Q703.82,13.66,701.45,1l.89.63L618.43,15.77l-83.9,14L450.62,43.67l-84,13.73L198.48,84.78Z"/><g id="Capa_2-2" data-name="Capa 2"><g id="Capa_1-2-2" data-name="Capa 1-2"><path class="cls-3" d="M126.64,364.77l-.64-3.9,3.94-.66a8,8,0,0,0,3.22-1.15,9.55,9.55,0,0,0,2.41-2.54q2.81-4,1-14.74l-22.18-134.3q-1.7-10.26-5.83-13.61a8.5,8.5,0,0,0-1.67-1,6.86,6.86,0,0,0-1.66-.48l-2-.3a21.21,21.21,0,0,0-5.09.46l-.64-3.91,50.38-8.32q24.57-4.05,43.92,17.59t25.76,60.48q6.62,40.07-5.61,67.17t-39,31.54ZM128,194.93l25.25,152.91a94.43,94.43,0,0,0,17.71-.67q19.31-3.19,27.73-26.54t2.75-57.79q-6-36.39-21.87-55.85t-36.85-16A108.68,108.68,0,0,0,128,194.93Z"/><path class="cls-3" d="M234.39,347l-.64-3.91q6.42-1.06,8.09-4.84t0-13.77l-11.79-71.4q-1.29-7.8-2.21-9.9c-1.34-3.45-3.35-4.95-6.05-4.51a8.7,8.7,0,0,0-4.23,2.21l-1.3-3.55,21.95-18.18,17,103.11q1.61,9.75,4.49,12.91t9.17,2.11l.65,3.91ZM214.68,181.62a22.27,22.27,0,0,1,.7-11.41q1.78-4.82,5.69-5.46,3.63-.6,7,3.36a21.31,21.31,0,0,1,4.47,10.56,20.49,20.49,0,0,1-.83,11.05c-1.25,3.13-3.13,4.91-5.64,5.32s-4.87-.66-7.06-3.23a20.49,20.49,0,0,1-4.34-10.19Z"/><path class="cls-3" d="M271.94,340.78l-.65-3.91q6.56-1.08,8.23-4.86t0-13.78l-12.31-74.56a39.1,39.1,0,0,0-1.56-6.75q-2-5.17-6.26-4.48a9.47,9.47,0,0,0-4.28,2.22l-1.31-3.55,21.94-18.24,4.53,25.66q2.28-6.41,4.06-10.58a52.31,52.31,0,0,1,3.5-7q5.23-9.65,13-10.93t14.49,5.89a21.19,21.19,0,0,1,3.76,5.65,86,86,0,0,1,3.75,9.92,162.87,162.87,0,0,1,7-17q5.44-10.17,13.35-11.49,8.31-1.36,15,6.53a31.24,31.24,0,0,1,5.18,9.79,113.36,113.36,0,0,1,3.77,16.78L378.08,302q1.6,9.75,4.5,12.9t9.58,2.05l.65,3.91-35.31,5.83-.65-3.91c4.09-.68,6.69-2.35,7.77-5s1.11-7.19.06-13.53L354.5,242.52q-1.65-10-2.43-13a23.28,23.28,0,0,0-2.74-6.18q-4-6.6-10.1-5.59-4.34.7-8,5.83t-7.08,15.73l11.52,69.75q1.56,9.45,4.39,12.71t8.84,2.27l.64,3.91-34.61,5.72-.65-3.91q6-1,7.77-5t.19-13.58l-10.6-64.24q-4-23.93-14.93-22.12a10,10,0,0,0-6,3.31,27,27,0,0,0-4.11,6.19q-1.71,3.5-5,12.07L293.08,316q1.57,9.5,4.46,12.77t9.34,2.21l.65,3.91Z"/><path class="cls-3" d="M418.24,242.09l-3.43-20.76q-1.38-8.29-2-10.58a18.3,18.3,0,0,0-2.73-5.19q-4.28-5.82-10.74-4.75a11.56,11.56,0,0,0-8.08,5.6,14.3,14.3,0,0,0-2.11,10.38l1.19,4.07,1.85,4,.49,2.93a16.36,16.36,0,0,1-.68,8.9c-1,2.51-2.56,3.94-4.6,4.27s-4.05-.5-5.73-2.57a18.34,18.34,0,0,1-3.45-8.71,33.12,33.12,0,0,1,4.43-23.56q6.56-10.62,18.14-12.54,12.15-2,18.87,4.43t9.44,22.84l11.07,67.07q1.47,8.82,2.83,11.48a3.9,3.9,0,0,0,7,.17,24.87,24.87,0,0,0,2.05-5.8l1.84,2.49-2.12,8.23a21.83,21.83,0,0,1-4.19,7.55,10,10,0,0,1-5.87,3.51q-5.93,1-10.27-6.93a26.78,26.78,0,0,1-1.93-4.63q-.88-2.77-2.31-7.87a110.94,110.94,0,0,1-5.8,14q-5.94,9.76-13.56,11-7.91,1.31-14.28-5.79T385.12,296q-3.87-23.44,10.6-36.88c2-1.95,4.1-3.81,6.28-5.55,3-2.51,4.9-4,5.6-4.44ZM426,289.17l-6.73-40.72-8.7,7.23Q403.05,263,401,266.84q-5,7.89-2.9,20.64a31.65,31.65,0,0,0,6,14.64q4.54,5.81,9.57,5a8.31,8.31,0,0,0,3.14-1.4,17.44,17.44,0,0,0,3.31-2.94q2.58-3.45,5.93-13.58Z"/><path class="cls-3" d="M452.69,310.93,452,307q6.56-1.08,8.3-4.87t.09-13.79l-11.67-70.67a64.36,64.36,0,0,0-2.34-10.62q-2-5.17-6.19-4.49a9.11,9.11,0,0,0-4.34,2.22l-1.31-3.54L456.79,183l4.29,25.95q1.47-4,3.42-9a62.06,62.06,0,0,1,4.05-8.57q5.44-9.93,13.19-11.21,8.29-1.36,15.56,8.2a34.86,34.86,0,0,1,5.12,9.54q1.66,4.86,3.63,16.81l10.63,64.35q1.61,9.75,4.44,12.91t9.22,2.11L531,298l-34.89,5.76-.65-3.91q6.14-1,7.72-4.9t0-13.64l-12-72.86a22,22,0,0,0-3.19-8,10.54,10.54,0,0,0-4.56-4.5,9.39,9.39,0,0,0-5.69-.82q-5.88,1-10.11,9.45a36.13,36.13,0,0,0-2.27,4.14c-.67,1.45-1.69,3.88-3,7.28l11.58,70.15q1.57,9.49,4.41,12.78t9.11,2.25l.65,3.91Z"/><path class="cls-3" d="M579.91,243.5l2,.67a185.44,185.44,0,0,1-.95,19.86,58.55,58.55,0,0,1-3.16,13.44q-5.94,15.28-17.52,17.2-13.68,2.25-25.22-12.93t-15.86-41.38q-4.53-27.41,2.31-47.65t21.35-22.63q9.76-1.62,18.16,5.78a31.83,31.83,0,0,1,10.37,19.37,17,17,0,0,1-.85,9.3q-1.71,4.17-4.8,4.68c-2.16.35-4.13-.49-5.92-2.54a16.16,16.16,0,0,1-3.52-8.2l-.29-1.71-.36-5.71-.33-2a16.16,16.16,0,0,0-4.36-9.07c-2.3-2.29-4.79-3.22-7.49-2.78q-8.66,1.44-11.88,16.18t.37,36.53q3.88,23.5,12.43,37.06t18.6,11.9q7.39-1.23,11.9-11.25Q578.55,259.52,579.91,243.5Z"/><path class="cls-3" d="M584.58,289.15l-.64-3.91q6.55-1.08,8.23-4.87t0-13.79l-21-127.13a74.73,74.73,0,0,0-2.68-11.83q-1.35-3.8-5.74-3.07a10.83,10.83,0,0,0-4.32,2L557.14,123l22-17.91,13.8,81.84c1.48-4.43,2.73-7.89,3.75-10.41a62.53,62.53,0,0,1,3.43-7.09q5.17-9.63,13-10.93,8.8-1.46,16.33,8.32A36.58,36.58,0,0,1,634.59,177a120.61,120.61,0,0,1,3.88,17.39l10.39,62.89q1.65,10,4.41,13t9.39,2l.65,3.91L628,282l-.64-3.91q6.27-1,7.95-4.82t0-13.77L625,196.85q-1.2-7.31-2-10.93a23.47,23.47,0,0,0-3-7.14,12.6,12.6,0,0,0-4.76-4.85,9,9,0,0,0-5.68-.81q-4.77.78-8.49,6.15-2.43,3.66-6.86,15.16l11.55,69.94q1.6,9.75,4.41,12.91t9.11,2.13l.65,3.9Z"/><path class="cls-3" d="M707.36,197.36l-44.53,7.35,1.12,7.63q3.28,19.88,12,32.55T694.1,256a12.91,12.91,0,0,0,9-6,31.71,31.71,0,0,0,5.35-11q1.38-5.53,1.53-17.7l2.09-.35c.13,3.72.21,7.06.22,10s0,6.42-.15,10.35q-.95,13.41-6.51,22.22T691.3,273.78q-13.68,2.27-24.83-13.21t-15.76-43.32q-4.56-27.6,1.15-46.86t19.39-21.52q8.93-1.47,17.32,5.89a44.28,44.28,0,0,1,11.51,15.45Q704.43,179.61,707.36,197.36Zm-46.87-16.51.39,12.89,29.77-4.66q-3-12-4.51-16.33a35.42,35.42,0,0,0-4.89-9q-5.31-7.59-10.8-6.69-4.51.75-7.26,7.31T660.49,180.85Z"/></g></g></g></g></svg>